<mxfile host="65bd71144e">
    <diagram id="GAWc1gAhpG-Zxj6IqSYM" name="Page-1">
        <mxGraphModel dx="689" dy="441" grid="1" gridSize="10" guides="1" tooltips="1" connect="1" arrows="1" fold="1" page="1" pageScale="1" pageWidth="850" pageHeight="1100" math="0" shadow="0">
            <root>
                <mxCell id="0"/>
                <mxCell id="1" parent="0"/>
                <mxCell id="2" value="&lt;span style=&quot;font-size: 36px;&quot;&gt;How do a finite state machine?&lt;/span&gt;" style="text;html=1;strokeColor=none;fillColor=none;align=center;verticalAlign=middle;whiteSpace=wrap;rounded=0;" parent="1" vertex="1">
                    <mxGeometry x="180" width="530" height="60" as="geometry"/>
                </mxCell>
                <mxCell id="3" value="" style="endArrow=none;html=1;fontSize=36;exitX=0;exitY=1;exitDx=0;exitDy=0;entryX=1;entryY=1;entryDx=0;entryDy=0;" parent="1" source="2" target="2" edge="1">
                    <mxGeometry width="50" height="50" relative="1" as="geometry">
                        <mxPoint x="330" y="200" as="sourcePoint"/>
                        <mxPoint x="380" y="150" as="targetPoint"/>
                    </mxGeometry>
                </mxCell>
                <mxCell id="4" value="IDLE" style="ellipse;whiteSpace=wrap;html=1;aspect=fixed;" parent="1" vertex="1">
                    <mxGeometry x="400" y="150" width="80" height="80" as="geometry"/>
                </mxCell>
                <mxCell id="42" value="" style="edgeStyle=none;html=1;" parent="1" source="6" target="41" edge="1">
                    <mxGeometry relative="1" as="geometry"/>
                </mxCell>
                <mxCell id="6" value="DEATH" style="ellipse;whiteSpace=wrap;html=1;aspect=fixed;" parent="1" vertex="1">
                    <mxGeometry x="640" y="150" width="80" height="80" as="geometry"/>
                </mxCell>
                <mxCell id="20" value="NO" style="text;html=1;strokeColor=none;fillColor=none;align=center;verticalAlign=middle;whiteSpace=wrap;rounded=0;" parent="1" vertex="1">
                    <mxGeometry x="580" y="190" width="60" height="30" as="geometry"/>
                </mxCell>
                <mxCell id="21" value="" style="endArrow=classic;html=1;exitX=1;exitY=0.5;exitDx=0;exitDy=0;" parent="1" source="4" edge="1">
                    <mxGeometry width="50" height="50" relative="1" as="geometry">
                        <mxPoint x="550" y="180" as="sourcePoint"/>
                        <mxPoint x="530" y="190" as="targetPoint"/>
                    </mxGeometry>
                </mxCell>
                <mxCell id="23" style="edgeStyle=none;html=1;entryX=0;entryY=0.5;entryDx=0;entryDy=0;" parent="1" source="22" target="6" edge="1">
                    <mxGeometry relative="1" as="geometry"/>
                </mxCell>
                <mxCell id="24" style="edgeStyle=none;html=1;entryX=0.5;entryY=0;entryDx=0;entryDy=0;" parent="1" source="22" target="4" edge="1">
                    <mxGeometry relative="1" as="geometry">
                        <mxPoint x="560" y="110" as="targetPoint"/>
                        <Array as="points">
                            <mxPoint x="560" y="120"/>
                            <mxPoint x="440" y="120"/>
                        </Array>
                    </mxGeometry>
                </mxCell>
                <mxCell id="22" value="HP&amp;gt;1" style="rhombus;whiteSpace=wrap;html=1;" parent="1" vertex="1">
                    <mxGeometry x="530" y="160" width="60" height="60" as="geometry"/>
                </mxCell>
                <mxCell id="25" value="YES" style="text;html=1;strokeColor=none;fillColor=none;align=center;verticalAlign=middle;whiteSpace=wrap;rounded=0;" parent="1" vertex="1">
                    <mxGeometry x="460" y="90" width="60" height="30" as="geometry"/>
                </mxCell>
                <mxCell id="33" value="Decoration.states" style="swimlane;whiteSpace=wrap;html=1;gradientColor=none;fillColor=default;swimlaneLine=1;labelBackgroundColor=none;" parent="1" vertex="1">
                    <mxGeometry x="180" y="140" width="200" height="290" as="geometry"/>
                </mxCell>
                <mxCell id="37" value="" style="rounded=0;whiteSpace=wrap;html=1;labelBackgroundColor=none;fillColor=default;gradientColor=none;" parent="33" vertex="1">
                    <mxGeometry y="20" width="200" height="270" as="geometry"/>
                </mxCell>
                <mxCell id="36" value="image Decoration 0 4&#10;&#10;&#10;state IDLE NONE 0&#10;frame 0 0.25 0 0 0 NONE&#10;frame 0 0.25 0 0 0 READY&#10;&#10;&#10;state DEATH DEAD 0&#10;frame 1 0.166 0 0 0 NONE&#10;frame 2 0.166 0 0 0 NONE&#10;frame 3 0.166 0 0 0 NONE&#10;&#10;&#10;state DEAD NONE 0&#10;frame 4 0.25 0 0 0 NONE&#10;frame 4 0.25 0 0 0 NONE" style="text;whiteSpace=wrap;html=1;" parent="33" vertex="1">
                    <mxGeometry y="20" width="180" height="270" as="geometry"/>
                </mxCell>
                <mxCell id="40" value="ðŸ“‚Project/States/Decoration.states" style="text;html=1;strokeColor=none;fillColor=none;align=center;verticalAlign=middle;whiteSpace=wrap;rounded=0;labelBackgroundColor=none;" parent="1" vertex="1">
                    <mxGeometry x="153" y="113" width="240" height="30" as="geometry"/>
                </mxCell>
                <mxCell id="41" value="DEAD" style="ellipse;whiteSpace=wrap;html=1;aspect=fixed;" parent="1" vertex="1">
                    <mxGeometry x="740" y="150" width="80" height="80" as="geometry"/>
                </mxCell>
                <mxCell id="43" value="&lt;font style=&quot;font-size: 24px;&quot;&gt;In EFPSE&lt;/font&gt;" style="text;html=1;strokeColor=none;fillColor=none;align=center;verticalAlign=middle;whiteSpace=wrap;rounded=0;labelBackgroundColor=none;rotation=-15;" parent="1" vertex="1">
                    <mxGeometry x="674" y="17" width="129" height="30" as="geometry"/>
                </mxCell>
                <UserObject label="f7a50bc1-d70b-4133-823c-4f7370e0ea70?machineId=94fa47ad-0e4b-461c-8865-4e04f15a520d&amp;mode=design" linkTarget="_blank" link="https://stately.ai/registry/editor/f7a50bc1-d70b-4133-823c-4f7370e0ea70?machineId=94fa47ad-0e4b-461c-8865-4e04f15a520d&amp;mode=design" id="47">
                    <mxCell style="fontColor=#0000EE;fontStyle=4;rounded=1;overflow=hidden;spacing=10;" vertex="1" parent="1">
                        <mxGeometry x="400" y="290" width="630" height="40" as="geometry"/>
                    </mxCell>
                </UserObject>
            </root>
        </mxGraphModel>
    </diagram>
</mxfile>